<?xml version="1.0" encoding="utf-8"?>
<!-- Generator: Adobe Illustrator 16.0.0, SVG Export Plug-In . SVG Version: 6.00 Build 0)  -->
<!DOCTYPE svg PUBLIC "-//W3C//DTD SVG 1.1//EN" "http://www.w3.org/Graphics/SVG/1.1/DTD/svg11.dtd">
<svg version="1.1" id="Layer_1" xmlns="http://www.w3.org/2000/svg" xmlns:xlink="http://www.w3.org/1999/xlink" x="0px" y="0px"
	 width="325.001px" height="421.326px" viewBox="0 0 325.001 421.326" enable-background="new 0 0 325.001 421.326"
	 xml:space="preserve">
<g fill="#DDD">
	<path fill-rule="evenodd" clip-rule="evenodd" d="M324.879,203.675c-0.899-13.936-2.863-27.806-4.457-41.693
		c-3.817-33.255-7.522-66.525-11.641-99.743c-1.386-11.174-3.357-22.341-6.054-33.266c-1.792-7.256-5.91-9.41-13.532-9.115
		c-6.959,0.27-13.923,0.7-20.852,1.392c-28.34,2.831-56.684,5.645-84.994,8.757c-15.005,1.649-29.944,3.899-45.332,5.933
		c-0.067-8.628-5.873-11.926-13.458-13.76c-6.781-1.641-13.496-3.608-20.124-5.784c-1.434-0.471-3.103-2.288-3.423-3.756
		C98.823,2.624,88.56-2.746,79.084,1.421c-11.905,5.235-15.04,21.432-5.808,30.691c1.163,1.167,3.167,1.863,4.868,2.067
		c12.211,1.471,17.345-1.303,23.417-13.131c7.989,2.396,16.356,4.457,24.324,7.549c2.604,1.011,4.355,4.582,6.059,7.26
		c0.369,0.581-0.841,3.014-1.84,3.472c-4.823,2.215-9.741,4.287-14.771,5.974c-28.546,9.571-56.869,19.616-84.016,32.852
		C16.195,85.528,9.215,98.105,6.965,113.519c-2.521,17.27-3.981,34.719-5.29,52.136c-2.175,28.943-2.688,57.908,1.252,86.781
		c3.069,22.485,21.666,44.195,43.744,49.495c9.455,2.27,19.455,2.559,29.242,3.07c9.403,0.491,18.852,0.106,28.334,0.106
		c-0.578,10.424-1.782,21.219-1.634,31.996c0.23,16.776,1.436,33.538,2.114,50.311c0.396,9.803,5.886,15.657,14.187,19.926
		c12.422,6.388,24.752,12.863,39.036,13.985c6.334,0,12.666,0,19,0c1.568-0.403,3.127-0.853,4.707-1.203
		c8.843-1.964,11.848-4.943,13.289-13.769c0.641-3.926,0.704-7.943,1.297-11.88c0.182-1.211,0.969-2.724,1.955-3.359
		c6.814-4.391,13.861-7.583,21.946-2.902c0.964,0.558,2.229,0.643,3.373,0.832c18.423,3.051,23.002,1.658,28.021-19.106
		c1.667-6.902,0.051-13.741-5.467-18.799c-2.26-2.071-2.127-3.764-1.574-6.482c0.816-4.004,1.205-8.289,0.717-12.327
		c-1.387-11.468-8.914-18.901-17.635-25.496c-1.619-1.225-3.259-3.372-3.523-5.282c-1.341-9.698-2.322-19.45-3.16-29.207
		c-0.098-1.142,1.182-3.039,2.298-3.549c13.128-6.006,26.352-11.805,39.542-17.676c13.976-6.22,27.699-13.1,41.979-18.517
		C320.18,226.738,325.939,220.079,324.879,203.675z M83.588,28.41c-3.992,0.126-8.549-6.072-8.646-11.759
		c-0.075-4.423,5.127-9.45,9.821-9.491c5.708-0.05,9.204,3.066,9.193,8.196C93.944,21.026,88.195,28.264,83.588,28.41z
		 M79.892,294.917c-10.738-0.79-21.391-2.844-32.054-4.513c-19.026-2.979-41.038-30.323-39.818-53.268
		c1.723-32.412,2.106-64.894,3.309-97.337c0.307-8.29,1.343-16.57,2.39-24.81c1.647-12.964,8.601-22.816,19.74-29.074
		c11.554-6.491,23.373-12.798,35.705-17.553c19.212-7.409,38.953-13.445,58.477-20.042c1.342-0.453,2.743-0.73,4.686-1.238
		c-0.353,3.078-0.631,5.499-0.939,8.186c1.986,0.1,3.956,0.199,5.908,0.297c0.307-0.649,0.634-1.069,0.704-1.529
		c1.435-9.445,1.346-9.978,10.877-11.45c21.844-3.374,43.751-6.368,65.68-9.137c12.879-1.625,25.85-2.528,38.78-3.744
		c2.111-0.199,4.228-0.339,6.585,0.362c-7.874,3.349-15.736,6.723-23.623,10.042c-34.168,14.38-68.386,28.644-102.477,43.205
		c-6.227,2.659-12.399,5.901-17.783,9.955c-6.163,4.64-12.856,6.163-20.093,5.97c-18.804-0.501-37.598-1.342-56.401-1.878
		c-1.665-0.047-3.364,1.147-5.047,1.765c1.495,1.18,2.937,3.3,4.494,3.388c9.629,0.547,19.291,0.489,28.928,0.922
		c9.634,0.433,19.258,1.143,28.876,1.879c2.076,0.159,4.103,0.952,6.417,1.517c-4.23,15.618,1.015,30.178,3.108,44.844
		c5.759,40.352,12.316,80.591,18.577,120.871c0.839,5.399,1.788,10.781,2.748,16.547C111.95,292.8,96.122,296.111,79.892,294.917z
		 M196.653,382.264c-5.225-4.395-9.754-8.206-14.445-12.153c7.369-8.088,5.617-18.347,2.219-28.436
		c-3.258-9.668-9.922-17.228-17.098-24.271c-0.858-0.843-2.146-1.248-4.27-1.073c0.998,1.931,1.857,3.948,3.016,5.777
		c5.878,9.281,11.71,18.568,14.07,29.527c2.398,11.133-5.734,18.617-16.727,15.167c-10.472-3.286-18.467-10.359-26.212-17.752
		c-1.825-1.742-3.794-3.334-6.47-4.282c4.45,10.551,11.286,19.143,20.662,26.146c-2.678,1.24-5.049,2.34-7.421,3.438
		c0.081,0.511,0.161,1.022,0.242,1.534c12.342,0.941,25.045-0.442,37.348,4.783c-4.736,0.952-9.042,1.271-12.869,2.795
		c-2.225,0.885-4.93,3.515-5.254,5.683c-1.093,7.308,2.359,13.782,4.474,20.467c0.599-0.029,1.197-0.059,1.796-0.089
		c0.363-4.51,0.816-9.016,1.067-13.532c0.438-7.877,0.731-8.199,8.538-10.287c1.792-0.479,3.403-1.636,6.154-3.007
		c0.65,1.687,1.986,4.005,2.387,6.475c0.473,2.925,0.191,5.981,0.143,8.979c-0.171,10.656-5.26,15.796-16.004,16.192
		c-11.814,0.436-23.085-1.613-33.952-6.506c-21-9.456-22.893-10.973-25.719-33.494c-2.955-23.545-1.619-47.182,0.705-71.828
		c9.31-0.454,18.517-0.53,27.635-1.472c6.678-0.689,13.648-1.515,19.772-4.026c16.756-6.872,33.134-14.669,49.663-22.094
		c1.046-0.47,2.11-0.896,3.995-1.692c0.457,6.876,1,13.252,1.286,19.64c0.994,22.14,1.74,44.292-2.454,66.226
		C210.899,369.717,205.737,378.194,196.653,382.264z M223.905,314.897c9.1,3.646,16.906,16.968,15.366,25.404
		c-1.692,9.265-6.75,11.981-15.366,8.615C223.905,337.273,223.905,326.208,223.905,314.897z M222.899,356.5
		c5.336-0.293,11.023-0.604,18.02-0.987c-14.506,5.117-16.8,8.653-12.562,19.206c3.306-6.886,6.039-13.996,15.467-12.707
		c2.387,4.878,1.009,15.866-3.75,20.185c-1.599,1.45-4.711,2.392-6.781,1.945c-6.238-1.347-12.303-3.491-17.725-5.111
		C218.235,370.831,220.579,363.633,222.899,356.5z M305.46,225.412c-20.12,8.764-40.327,17.33-60.503,25.968
		c-26.136,11.19-52.214,22.52-78.463,33.438c-5.441,2.264-11.455,3.442-17.325,4.303c-6.404,0.938-9.668-1.784-10.838-8.172
		c-3.477-18.984-6.857-37.987-10.229-56.99c-4.244-23.917-8.473-47.835-12.645-71.764c-1.856-10.645-3.555-21.317-4.656-27.946
		c-0.567-17.801,3.265-23.64,15.938-29.145C176.759,73.375,226.754,51.59,276.77,29.856c1.819-0.791,3.738-1.411,5.668-1.874
		c8.551-2.054,14.391,0.817,16.319,9.36c2.04,9.038,3.151,18.33,4.063,27.57c3.667,37.118,7.07,74.262,10.64,111.39
		c1.003,10.438,2.281,20.85,3.356,31.281C317.672,215.889,314.195,221.606,305.46,225.412z"/>
	<path fill-rule="evenodd" clip-rule="evenodd" d="M297.641,72.662c-1.194-9.305-4.276-18.449-7.253-27.414
		c-1.873-5.638-4.91-6.639-10.587-5.245c-4.036,0.991-8.096,1.954-12.034,3.263c-45.143,15-88.126,35.052-130.64,56.159
		c-9.616,4.774-13.75,13.305-13.657,23.768c0.037,4.119,1.048,8.244,1.774,12.338c4.564,25.726,9.096,51.458,13.795,77.159
		c2.874,15.714,5.514,31.499,9.219,47.021c2.909,12.187,13.138,17.214,24.719,12.814c40.14-15.251,80.231-30.63,120.251-46.196
		c13.076-5.086,18.917-15.1,17.977-29.075C311.646,197.203,302.96,114.095,297.641,72.662z M302.779,205.171
		c-3.836,7.427-7.119,13.73-15.494,16.861c-35.808,13.386-71.437,27.249-107.179,40.812c-4.488,1.703-9.299,2.541-13.893,3.997
		c-3.938,1.248-6.509,0.062-7.735-3.809c-3.556-11.227-7.855-22.296-10.374-33.754c-4.461-20.297-7.99-40.807-11.581-61.285
		c-2.154-12.286-3.99-24.647-5.346-37.043c-0.511-4.673,0.285-9.636,1.287-14.294c1.5-6.974,5.44-11.986,12.292-15.247
		c41.504-19.752,83.011-39.461,126.849-53.688c0.792-0.257,1.594-0.485,2.397-0.7c9.017-2.408,12.078-1.319,14.017,7.826
		c3.724,17.564,7.24,35.242,9.435,53.045C300.611,133.504,307.95,195.159,302.779,205.171z"/>
	<path fill-rule="evenodd" clip-rule="evenodd" d="M182.415,142.889c-5.046-1.312-9.21,0.939-11.758,4.684
		c-2.601,3.825-4.744,8.436-5.453,12.959c-1.036,6.601,3.83,13.439,9.211,14.938c5.979,1.667,12.064-1.26,15.451-7.994
		c1.451-2.886,1.955-6.248,2.615-8.471c-0.32-2.738-0.3-4.445-0.744-6.021C190.354,148.08,187.666,144.255,182.415,142.889z"/>
	<path fill-rule="evenodd" clip-rule="evenodd" d="M264.129,110.465c-7.34,5.145-9.25,18.743-3.604,25.655
		c3.87,4.737,8.876,5.491,12.776,0.805c8.148-6.099,4.987-21.499,3.123-24.487C273.69,108.055,268.357,107.501,264.129,110.465z"/>
	<path fill-rule="evenodd" clip-rule="evenodd" d="M243.094,185.955c-0.912,2.959-0.948,6.278-2.289,8.981
		c-0.766,1.542-3.458,3.086-5.139,2.942c-1.612-0.138-3.578-2.189-4.405-3.881c-0.974-1.994-0.739-4.544-1.327-6.773
		c-0.287-1.088-1.255-1.998-1.914-2.987c-0.957,0.982-2.701,1.949-2.723,2.951c-0.064,3.112,0.074,6.37,0.949,9.332
		c2.293,7.761,9.254,9.722,15.576,4.624c4.838-3.902,5.909-9.39,6.325-16.863c-0.296-0.559-1.288-2.427-2.279-4.296
		C244.924,181.967,243.736,183.877,243.094,185.955z"/>
</g>
</svg>
