<?xml version="1.0" encoding="utf-8"?>
<!-- Generator: Adobe Illustrator 16.0.0, SVG Export Plug-In . SVG Version: 6.00 Build 0)  -->
<!DOCTYPE svg PUBLIC "-//W3C//DTD SVG 1.1//EN" "http://www.w3.org/Graphics/SVG/1.1/DTD/svg11.dtd">
<svg version="1.1" id="Layer_1" xmlns="http://www.w3.org/2000/svg" xmlns:xlink="http://www.w3.org/1999/xlink" x="0px" y="0px"
	 width="326.49px" height="305.619px" viewBox="0 0 326.49 305.619" enable-background="new 0 0 326.49 305.619"
	 xml:space="preserve">
<g fill="#DDD">
<path fill-rule="evenodd" clip-rule="evenodd" d="M325.51,230.969c0.775-13.944,0.486-27.949,0.568-41.927
	c0.193-33.474,0.499-66.947,0.39-100.419c-0.037-11.26-0.657-22.582-2.026-33.751c-0.909-7.419-4.74-10.05-12.343-10.67
	c-6.941-0.565-13.906-0.973-20.868-1.115c-28.475-0.584-56.952-1.185-85.432-1.486c-15.094-0.16-30.195,0.284-45.716,0.461
	c0.967-8.574-4.401-12.543-11.712-15.273c-6.536-2.441-12.966-5.198-19.287-8.152c-1.367-0.639-2.806-2.644-2.949-4.139
	C125.16,4.29,115.614-2.271,105.708,0.731c-12.446,3.771-17.499,19.476-9.442,29.774c1.015,1.297,2.921,2.229,4.585,2.636
	c11.947,2.922,17.376,0.783,24.821-10.233c7.644,3.335,15.705,6.384,23.245,10.408c2.464,1.316,3.776,5.07,5.146,7.934
	c0.296,0.621-1.197,2.892-2.243,3.227c-5.054,1.621-10.185,3.089-15.38,4.162c-29.487,6.083-58.809,12.663-87.346,22.552
	c-15.896,5.508-24.333,17.16-28.412,32.193c-4.571,16.844-8.111,33.993-11.497,51.127c-5.626,28.474-9.604,57.168-9.15,86.306
	c0.354,22.691,16.216,46.473,37.501,54.378c9.115,3.386,19.008,4.87,28.664,6.551c9.276,1.613,55.597,3.673,64.762,3.829
	c6.712,0.115,13.731,0.131,20.112-1.629c17.458-4.815,93.257-29.068,107.057-33.317c14.62-4.501,29.068-9.688,43.894-13.355
	C318.082,253.303,324.596,247.381,325.51,230.969z M106.947,28.065c-3.978-0.353-7.76-7.052-7.175-12.709
	c0.456-4.4,6.222-8.768,10.888-8.247c5.673,0.634,8.77,4.146,8.145,9.238C118.113,21.975,111.539,28.472,106.947,28.065z
	 M71.357,292.21c-10.566-2.069-20.896-5.385-31.283-8.318c-18.532-5.236-37.11-35.021-33.152-57.653
	c5.593-31.973,9.864-64.174,14.943-96.241c1.297-8.193,3.317-16.29,5.344-24.345c3.188-12.673,11.272-21.622,23.08-26.5
	c12.249-5.061,24.737-9.907,37.55-13.15c19.961-5.055,40.283-8.683,60.457-12.894c1.386-0.289,2.811-0.396,4.8-0.668
	c-0.719,3.014-1.285,5.384-1.912,8.015c1.96,0.336,3.903,0.671,5.83,1.002c0.382-0.608,0.757-0.986,0.882-1.435
	c2.556-9.205,2.532-9.745,12.171-10.064c22.09-0.734,44.198-1.083,66.301-1.205c12.98-0.071,25.966,0.586,38.949,0.928
	c2.12,0.056,4.237,0.17,6.494,1.148c-8.219,2.381-16.429,4.79-24.656,7.14c-35.644,10.183-71.324,20.247-106.913,30.619
	c-6.5,1.894-13.016,4.374-18.847,7.754c-6.674,3.868-13.501,4.579-20.663,3.52c-18.608-2.75-37.167-5.836-55.771-8.62
	c-1.647-0.246-3.478,0.736-5.222,1.147c1.343,1.351,2.52,3.628,4.056,3.902c9.494,1.697,19.093,2.795,28.609,4.38
	c9.513,1.583,18.982,3.441,28.443,5.324c2.042,0.406,3.959,1.436,6.188,2.274c-6.07,14.999-2.606,30.082-2.285,44.893
	c0.885,40.751,2.575,81.486,3.967,122.226c0.186,5.461,0.483,10.918,0.746,16.757C103.438,293.949,87.328,295.34,71.357,292.21z
	 M303.627,250.223c-21.025,6.291-42.112,12.375-63.178,18.535c-27.288,7.979-54.535,16.104-81.903,23.8
	c-5.673,1.595-11.785,2.045-17.715,2.196c-6.47,0.164-9.385-2.929-9.781-9.411c-1.178-19.264-2.258-38.535-3.33-57.805
	c-1.348-24.253-2.682-48.507-3.958-72.763c-0.568-10.791-0.977-21.589-1.275-28.302c1.569-17.741,6.073-23.078,19.314-27.026
	c52.261-15.582,104.505-31.221,156.765-46.808c1.9-0.567,3.88-0.953,5.851-1.182c8.735-1.015,14.189,2.535,15.082,11.248
	c0.942,9.217,0.933,18.575,0.73,27.858c-0.805,37.291-1.874,74.574-2.777,111.863c-0.255,10.483-0.233,20.973-0.414,31.458
	C316.892,242.232,312.754,247.491,303.627,250.223z"/>
<path fill-rule="evenodd" clip-rule="evenodd" d="M314.159,97.637c-0.071-9.381-2.036-18.829-3.917-28.085
	c-1.185-5.822-4.08-7.179-9.884-6.476c-4.125,0.5-8.271,0.97-12.338,1.798c-46.614,9.485-91.689,24.245-136.426,40.108
	c-10.118,3.588-15.245,11.562-16.405,21.961c-0.457,4.093,0.053,8.31,0.284,12.461c1.45,26.086,2.868,52.176,4.455,78.255
	c0.97,15.944,1.701,31.933,3.521,47.787c1.428,12.447,10.982,18.664,23.006,15.683c41.677-10.333,83.322-20.799,124.918-31.46
	c13.592-3.483,20.589-12.726,21.33-26.714C313.146,222.958,314.477,139.409,314.159,97.637z M303.389,229.807
	c-4.698,6.915-8.712,12.778-17.402,14.884c-37.152,9.001-74.187,18.496-111.295,27.682c-4.66,1.153-9.537,1.409-14.271,2.305
	c-4.06,0.767-6.47-0.719-7.223-4.708c-2.185-11.571-5.128-23.076-6.256-34.754c-1.998-20.685-3.044-41.47-4.157-62.231
	c-0.668-12.455-1.01-24.947-0.871-37.417c0.052-4.701,1.438-9.533,2.99-14.038c2.325-6.744,6.836-11.248,14.03-13.665
	c43.57-14.639,87.14-29.235,132.366-38.108c0.816-0.161,1.641-0.291,2.464-0.408c9.24-1.311,12.148,0.137,12.979,9.448
	c1.593,17.884,2.967,35.855,3.013,53.794C309.82,158.396,309.721,220.487,303.389,229.807z"/>
<path fill-rule="evenodd" clip-rule="evenodd" d="M191.351,153.557c-4.853-1.907-9.256-0.17-12.234,3.242
	c-3.04,3.486-5.72,7.807-6.966,12.213c-1.819,6.429,2.193,13.801,7.355,15.934c5.736,2.371,12.129,0.194,16.297-6.085
	c1.787-2.691,2.689-5.969,3.611-8.097c0.011-2.756,0.234-4.449-0.018-6.066C198.61,159.661,196.4,155.542,191.351,153.557z"/>
<path fill-rule="evenodd" clip-rule="evenodd" d="M276.361,131.153c-7.903,4.229-11.43,17.5-6.652,25.039
	c3.274,5.167,8.155,6.514,12.588,2.329c8.82-5.079,7.526-20.746,6.034-23.936C286.142,129.906,280.912,128.718,276.361,131.153z"/>
<path fill-rule="evenodd" clip-rule="evenodd" d="M246.435,203.581c-1.259,2.829-1.692,6.119-3.348,8.643
	c-0.945,1.44-3.803,2.649-5.454,2.304c-1.585-0.33-3.29-2.602-3.909-4.38c-0.727-2.096-0.188-4.6-0.506-6.884
	c-0.154-1.115-1.007-2.133-1.542-3.195c-1.068,0.861-2.915,1.611-3.057,2.604c-0.437,3.081-0.689,6.333-0.176,9.377
	c1.347,7.98,8.022,10.761,14.91,6.456c5.271-3.294,6.992-8.614,8.3-15.984c-0.227-0.59-0.988-2.564-1.749-4.538
	C248.729,199.841,247.321,201.594,246.435,203.581z"/>
</g>
</svg>
